<svg width="18" height="16" viewBox="0 0 18 16" fill="none" xmlns="http://www.w3.org/2000/svg">
<path d="M17.3473 7.908C16.8476 7.424 16.7361 6.68867 17.0719 6.09C17.3116 5.66333 17.3284 5.156 17.1167 4.71533C16.9057 4.27533 16.4908 3.954 15.9946 3.84733C15.3 3.69733 14.7877 3.136 14.7309 2.46C14.6895 1.978 14.4148 1.54133 13.9865 1.28C13.5597 1.018 13.0284 0.961333 12.5497 1.12733C11.8797 1.35867 11.1297 1.14867 10.698 0.61C10.3896 0.226 9.91015 0 9.40131 0C8.89316 0 8.41375 0.226 8.10536 0.61C7.67571 1.14933 6.92576 1.35933 6.25571 1.128C5.7777 0.962666 5.24642 1.01933 4.81888 1.28067C4.39134 1.542 4.11589 1.97867 4.07524 2.46067C4.01776 3.13667 3.50611 3.69867 2.81153 3.848C2.3153 3.95467 1.90037 4.276 1.6894 4.716C1.47843 5.156 1.49526 5.664 1.73496 6.09C2.07069 6.688 1.95925 7.424 1.46021 7.908C1.10346 8.25267 0.936645 8.736 1.00884 9.21467C1.08103 9.69333 1.38451 10.1127 1.82888 10.348C2.45127 10.678 2.77648 11.3547 2.6307 12.018C2.52767 12.4913 2.66154 12.9833 2.99446 13.3487C3.32809 13.7147 3.82151 13.9113 4.32756 13.8807C5.03966 13.8387 5.6964 14.2407 5.95152 14.8733C6.13305 15.3253 6.52625 15.67 7.01477 15.806C7.50189 15.942 8.02896 15.854 8.43828 15.568C9.01231 15.166 9.79521 15.166 10.3685 15.568C10.7779 15.8547 11.3049 15.9427 11.792 15.806C12.2806 15.67 12.6738 15.3247 12.856 14.8733C13.1104 14.2407 13.7679 13.838 14.4793 13.8807C14.9867 13.9113 15.4794 13.7147 15.8124 13.3487C16.1453 12.9833 16.2799 12.4913 16.1761 12.018C16.031 11.3547 16.3555 10.678 16.9786 10.348C17.4223 10.112 17.7251 9.69333 17.798 9.21467C17.8709 8.736 17.7034 8.25267 17.3473 7.908V7.908ZM8.5273 11.528L5.37329 8.61867L6.67484 7.38067L8.5273 9.05133L12.4824 5.19533L13.784 6.43333L8.5273 11.528Z" fill="#F8765E"/>
</svg>
