<svg width="26" height="24" viewBox="0 0 26 24" fill="none" xmlns="http://www.w3.org/2000/svg">
<path d="M25.6867 21.646L19.1631 15.441C20.39 13.836 21.1154 11.862 21.1154 9.73C21.1154 4.365 16.5264 0 10.8849 0C5.24448 0 0.655396 4.365 0.655396 9.73C0.655396 15.096 5.24448 19.46 10.8849 19.46C13.0233 19.46 15.0093 18.833 16.6536 17.762L23.2118 24L25.6867 21.646V21.646ZM3.65591 9.73C3.65591 5.938 6.89928 2.853 10.8859 2.853C14.8726 2.853 18.116 5.938 18.116 9.73C18.116 13.522 14.8726 16.607 10.8859 16.607C6.89823 16.607 3.65591 13.522 3.65591 9.73V9.73Z" fill="#B6BBC9"/>
</svg>
